<svg width="335" height="114" viewBox="0 0 335 114" fill="none" xmlns="http://www.w3.org/2000/svg">
<path d="M43.0384 10.7016L14.3461 32.1047V74.9111H71.7306V32.1047L43.0384 10.7016ZM34.9687 44.5899C37.4434 44.5899 39.4518 46.5876 39.4518 49.0489C39.4518 51.5103 37.4434 53.5079 34.9687 53.5079C32.494 53.5079 30.4855 51.5103 30.4855 49.0489C30.4855 46.5876 32.494 44.5899 34.9687 44.5899ZM60.971 64.2095H57.3845V58.8587H28.6923V64.2095H25.1057V39.2391H28.6923V55.2915H41.2451V42.8063H53.798C57.7432 42.8063 60.971 46.0168 60.971 49.9407V64.2095Z" fill="white"/>
<path d="M79.371 61.9186L59.2554 65.0395L56.0251 76.9497C53.0371 87.9666 57.9068 100.325 67.5267 105.589C78.5033 105.851 88.9613 97.6051 91.9493 86.5882L95.1796 74.678L79.371 61.9186ZM66.7654 92.6082L60.9357 82.5261L64.5089 80.4823L68.289 86.9905L84.9892 77.438L87.0387 81.0117L66.7654 92.6082Z" fill="#F0F0F0"/>
<path d="M113.587 44.8433L107.627 45.2081C107.525 44.7014 107.306 44.2454 106.969 43.84C106.633 43.4245 106.19 43.0951 105.64 42.8519C105.1 42.5986 104.453 42.4719 103.699 42.4719C102.69 42.4719 101.839 42.6847 101.146 43.1103C100.453 43.5258 100.107 44.0832 100.107 44.7825C100.107 45.3398 100.331 45.8111 100.779 46.1962C101.228 46.5813 101.997 46.8904 103.087 47.1234L107.336 47.9747C109.618 48.4409 111.32 49.1908 112.441 50.2245C113.562 51.2581 114.122 52.6161 114.122 54.2984C114.122 55.8286 113.669 57.1714 112.762 58.3267C111.865 59.4819 110.632 60.3839 109.063 61.0325C107.504 61.6709 105.706 61.9901 103.668 61.9901C100.56 61.9901 98.0845 61.3466 96.2403 60.0596C94.4063 58.7624 93.3313 56.9991 93.0155 54.7696L99.4193 54.4352C99.6129 55.3776 100.082 56.0972 100.825 56.5937C101.569 57.0802 102.522 57.3234 103.683 57.3234C104.825 57.3234 105.742 57.1055 106.434 56.6697C107.137 56.2238 107.494 55.6513 107.504 54.952C107.494 54.3642 107.244 53.8829 106.755 53.5079C106.266 53.1228 105.512 52.8289 104.493 52.6262L100.428 51.8206C98.1355 51.3646 96.4288 50.5741 95.308 49.4492C94.1974 48.3243 93.6421 46.8904 93.6421 45.1473C93.6421 43.6475 94.0497 42.3554 94.8648 41.271C95.6901 40.1867 96.8465 39.3506 98.3341 38.7628C99.8319 38.1751 101.584 37.8812 103.592 37.8812C106.557 37.8812 108.89 38.5044 110.592 39.7509C112.303 40.9974 113.302 42.6949 113.587 44.8433Z" fill="white"/>
<path d="M128.92 61.9901C126.505 61.9901 124.427 61.5037 122.685 60.5308C120.952 59.5478 119.618 58.1595 118.68 56.3657C117.743 54.5619 117.274 52.4286 117.274 49.966C117.274 47.5643 117.743 45.4564 118.68 43.6424C119.618 41.8284 120.937 40.4147 122.639 39.4013C124.351 38.3879 126.358 37.8812 128.66 37.8812C130.209 37.8812 131.651 38.1295 132.986 38.626C134.331 39.1125 135.502 39.8472 136.501 40.8302C137.51 41.8132 138.294 43.0495 138.855 44.5393C139.415 46.0188 139.695 47.7518 139.695 49.738V51.5166H119.872V47.5035H133.566C133.566 46.5711 133.363 45.7452 132.955 45.0257C132.548 44.3062 131.982 43.7437 131.259 43.3384C130.545 42.9229 129.715 42.7151 128.767 42.7151C127.779 42.7151 126.903 42.9431 126.139 43.3992C125.385 43.8451 124.794 44.448 124.366 45.2081C123.938 45.958 123.719 46.7941 123.709 47.7163V51.5318C123.709 52.687 123.923 53.6853 124.351 54.5264C124.789 55.3675 125.405 56.0161 126.2 56.4721C126.995 56.9282 127.937 57.1562 129.027 57.1562C129.751 57.1562 130.413 57.0548 131.014 56.8522C131.615 56.6495 132.13 56.3454 132.558 55.9401C132.986 55.5347 133.312 55.0382 133.536 54.4504L139.558 54.8456C139.252 56.2846 138.625 57.5413 137.678 58.6155C136.74 59.6796 135.528 60.5106 134.04 61.1085C132.563 61.6962 130.856 61.9901 128.92 61.9901Z" fill="white"/>
<path d="M150.455 48.0355V61.5341H143.944V38.1852H150.149V42.3047H150.424C150.944 40.9467 151.815 39.8725 153.038 39.0821C154.26 38.2815 155.743 37.8812 157.485 37.8812C159.115 37.8812 160.537 38.2359 161.749 38.9452C162.962 39.6546 163.904 40.668 164.577 41.9855C165.249 43.2928 165.585 44.8534 165.585 46.6674V61.5341H159.075V47.8227C159.085 46.3938 158.718 45.279 157.974 44.4785C157.23 43.6677 156.206 43.2624 154.902 43.2624C154.026 43.2624 153.252 43.4498 152.579 43.8248C151.917 44.1998 151.397 44.747 151.02 45.4665C150.653 46.1759 150.465 47.0322 150.455 48.0355Z" fill="white"/>
<path d="M177.411 61.9749C175.913 61.9749 174.579 61.7165 173.407 61.1997C172.235 60.6727 171.308 59.8974 170.625 58.8739C169.953 57.8402 169.616 56.5532 169.616 55.0128C169.616 53.7157 169.856 52.6262 170.335 51.7446C170.814 50.8629 171.466 50.1535 172.291 49.6164C173.116 49.0793 174.054 48.674 175.103 48.4003C176.163 48.1267 177.273 47.9342 178.435 47.8227C179.8 47.6808 180.901 47.5491 181.736 47.4275C182.572 47.2957 183.178 47.1032 183.555 46.8498C183.932 46.5965 184.121 46.2215 184.121 45.7249V45.6337C184.121 44.671 183.815 43.9261 183.204 43.3992C182.602 42.8722 181.746 42.6087 180.636 42.6087C179.464 42.6087 178.532 42.8671 177.839 43.384C177.146 43.8907 176.688 44.5291 176.463 45.2993L170.442 44.8129C170.747 43.3941 171.349 42.1679 172.245 41.1342C173.142 40.0904 174.298 39.2898 175.715 38.7324C177.141 38.1649 178.792 37.8812 180.666 37.8812C181.971 37.8812 183.219 38.0332 184.411 38.3372C185.613 38.6412 186.678 39.1125 187.605 39.7509C188.543 40.3894 189.281 41.2102 189.821 42.2135C190.361 43.2066 190.631 44.3974 190.631 45.7857V61.5341H184.457V58.2963H184.273C183.896 59.0259 183.392 59.6694 182.76 60.2268C182.129 60.774 181.369 61.2047 180.483 61.5189C179.597 61.8229 178.573 61.9749 177.411 61.9749ZM179.276 57.5058C180.233 57.5058 181.079 57.3183 181.813 56.9434C182.546 56.5583 183.122 56.0414 183.54 55.3928C183.957 54.7443 184.166 54.0095 184.166 53.1887V50.7109C183.963 50.8427 183.682 50.9643 183.326 51.0757C182.979 51.1771 182.587 51.2733 182.149 51.3646C181.711 51.4456 181.273 51.5216 180.835 51.5926C180.396 51.6534 179.999 51.7091 179.642 51.7598C178.878 51.8713 178.211 52.0486 177.64 52.2918C177.07 52.535 176.626 52.8644 176.311 53.2799C175.995 53.6853 175.837 54.192 175.837 54.8C175.837 55.6817 176.158 56.3556 176.8 56.8218C177.452 57.2778 178.277 57.5058 179.276 57.5058Z" fill="white"/>
<path d="M202.193 48.0355V61.5341H195.682V38.1852H201.888V42.3047H202.163C202.682 40.9467 203.553 39.8725 204.776 39.0821C205.999 38.2815 207.481 37.8812 209.224 37.8812C210.854 37.8812 212.275 38.2359 213.488 38.9452C214.7 39.6546 215.643 40.668 216.315 41.9855C216.988 43.2928 217.324 44.8534 217.324 46.6674V61.5341H210.813V47.8227C210.823 46.3938 210.457 45.279 209.713 44.4785C208.969 43.6677 207.945 43.2624 206.641 43.2624C205.765 43.2624 204.99 43.4498 204.318 43.8248C203.655 44.1998 203.136 44.747 202.759 45.4665C202.392 46.1759 202.203 47.0322 202.193 48.0355Z" fill="white"/>
<path d="M233.032 70.7764C230.922 70.7764 229.114 70.4875 227.606 69.9099C226.108 69.3424 224.916 68.5671 224.03 67.5841C223.143 66.6011 222.567 65.4965 222.303 64.2703L228.324 63.4646C228.508 63.9308 228.798 64.3666 229.195 64.7719C229.593 65.1773 230.118 65.5016 230.77 65.7448C231.432 65.9982 232.237 66.1248 233.184 66.1248C234.601 66.1248 235.767 65.7803 236.684 65.0912C237.612 64.4122 238.075 63.2721 238.075 61.6709V57.3994H237.8C237.515 58.048 237.087 58.6611 236.516 59.2387C235.946 59.8164 235.212 60.2876 234.315 60.6524C233.419 61.0173 232.349 61.1997 231.106 61.1997C229.343 61.1997 227.738 60.7943 226.292 59.9836C224.855 59.1627 223.709 57.9112 222.853 56.2289C222.007 54.5365 221.584 52.3982 221.584 49.814C221.584 47.169 222.017 44.9598 222.883 43.1864C223.749 41.4129 224.901 40.0853 226.337 39.2037C227.784 38.322 229.369 37.8812 231.091 37.8812C232.405 37.8812 233.505 38.1041 234.392 38.55C235.278 38.9858 235.992 39.533 236.532 40.1917C237.082 40.8403 237.505 41.4788 237.8 42.1071H238.045V38.1852H244.51V61.7621C244.51 63.7484 244.02 65.4104 243.042 66.7481C242.064 68.0858 240.709 69.0891 238.977 69.7579C237.255 70.4369 235.273 70.7764 233.032 70.7764ZM233.169 56.3353C234.219 56.3353 235.105 56.0769 235.828 55.5601C236.562 55.0331 237.122 54.2832 237.51 53.3103C237.907 52.3273 238.106 51.1517 238.106 49.7836C238.106 48.4155 237.912 47.2298 237.525 46.2266C237.138 45.2132 236.577 44.4278 235.844 43.8704C235.11 43.313 234.219 43.0343 233.169 43.0343C232.099 43.0343 231.198 43.3232 230.464 43.9008C229.73 44.4683 229.175 45.2588 228.798 46.2722C228.421 47.2856 228.233 48.4561 228.233 49.7836C228.233 51.1315 228.421 52.2969 228.798 53.2799C229.185 54.2528 229.741 55.0078 230.464 55.5449C231.198 56.0718 232.099 56.3353 233.169 56.3353Z" fill="white"/>
<path d="M255.59 54.8152L255.605 47.0474H256.553L264.072 38.1852H271.546L261.444 49.9205H259.9L255.59 54.8152ZM249.691 61.5341V30.4022H256.201V61.5341H249.691ZM264.363 61.5341L257.455 51.3646L261.795 46.789L271.989 61.5341H264.363Z" fill="white"/>
<path d="M284.38 61.9901C282.006 61.9901 279.953 61.4885 278.221 60.4852C276.499 59.4718 275.169 58.0632 274.232 56.2593C273.295 54.4453 272.826 52.3425 272.826 49.9508C272.826 47.5389 273.295 45.4311 274.232 43.6272C275.169 41.8132 276.499 40.4046 278.221 39.4013C279.953 38.3879 282.006 37.8812 284.38 37.8812C286.754 37.8812 288.802 38.3879 290.524 39.4013C292.256 40.4046 293.591 41.8132 294.529 43.6272C295.466 45.4311 295.935 47.5389 295.935 49.9508C295.935 52.3425 295.466 54.4453 294.529 56.2593C293.591 58.0632 292.256 59.4718 290.524 60.4852C288.802 61.4885 286.754 61.9901 284.38 61.9901ZM284.411 56.9738C285.491 56.9738 286.393 56.6697 287.116 56.0617C287.84 55.4435 288.385 54.6024 288.751 53.5383C289.128 52.4742 289.317 51.2632 289.317 49.9052C289.317 48.5473 289.128 47.3363 288.751 46.2722C288.385 45.2081 287.84 44.367 287.116 43.7488C286.393 43.1306 285.491 42.8215 284.411 42.8215C283.321 42.8215 282.404 43.1306 281.66 43.7488C280.926 44.367 280.371 45.2081 279.994 46.2722C279.627 47.3363 279.444 48.5473 279.444 49.9052C279.444 51.2632 279.627 52.4742 279.994 53.5383C280.371 54.6024 280.926 55.4435 281.66 56.0617C282.404 56.6697 283.321 56.9738 284.411 56.9738Z" fill="white"/>
<path d="M319.701 44.8433L313.74 45.2081C313.638 44.7014 313.419 44.2454 313.083 43.84C312.747 43.4245 312.303 43.0951 311.753 42.8519C311.213 42.5986 310.566 42.4719 309.812 42.4719C308.803 42.4719 307.953 42.6847 307.26 43.1103C306.567 43.5258 306.221 44.0832 306.221 44.7825C306.221 45.3398 306.445 45.8111 306.893 46.1962C307.341 46.5813 308.111 46.8904 309.201 47.1234L313.45 47.9747C315.732 48.4409 317.434 49.1908 318.554 50.2245C319.675 51.2581 320.236 52.6161 320.236 54.2984C320.236 55.8286 319.782 57.1714 318.875 58.3267C317.979 59.4819 316.746 60.3839 315.177 61.0325C313.618 61.6709 311.819 61.9901 309.782 61.9901C306.674 61.9901 304.198 61.3466 302.354 60.0596C300.52 58.7624 299.445 56.9991 299.129 54.7696L305.533 54.4352C305.726 55.3776 306.195 56.0972 306.939 56.5937C307.683 57.0802 308.635 57.3234 309.797 57.3234C310.938 57.3234 311.855 57.1055 312.548 56.6697C313.251 56.2238 313.608 55.6513 313.618 54.952C313.608 54.3642 313.358 53.8829 312.869 53.5079C312.38 53.1228 311.626 52.8289 310.607 52.6262L306.541 51.8206C304.249 51.3646 302.542 50.5741 301.421 49.4492C300.311 48.3243 299.756 46.8904 299.756 45.1473C299.756 43.6475 300.163 42.3554 300.978 41.271C301.804 40.1867 302.96 39.3506 304.448 38.7628C305.945 38.1751 307.698 37.8812 309.705 37.8812C312.67 37.8812 315.003 38.5044 316.705 39.7509C318.417 40.9974 319.415 42.6949 319.701 44.8433Z" fill="white"/>
<path d="M328.894 36.2248C332.267 36.2248 335 33.5058 335 30.1517C335 26.7976 332.267 24.0786 328.894 24.0786C325.521 24.0786 322.788 26.7976 322.788 30.1517C322.788 33.5058 325.521 36.2248 328.894 36.2248Z" fill="white"/>
</svg>
